stateDiagram
  state Architecture {
    Resources --> VtecAdmin: Import
    state VtecAdmin {
      Layout
      RouteBuilder
      ModuleBuilder
      PageComponents
      FieldComponents
      InputComponents
    }
    Vuetify --> VtecAdmin: VComponents
    Vuetify --> VueRouter: VComponents
    VtecAdmin --> VueRouter: CRUD routes
    VtecAdmin --> VueRouter: VAComponents
    VtecAdmin --> Vuex: Resources modules
    state VueRouter {
      List
      Show
      Create
      Edit
    }
    state Vuex {
      AuthModule
      ResourceModules
    }
    VueRouter --> Vuex: Dispatch
    state Providers {
      AuthProvider
      DataProvider
    }
    Vuex --> Providers
    Providers --> Server: Request
    state Server {
      API
    }
  }
